<?xml version="1.0" encoding="UTF-8" standalone="no" ?>
<svg xmlns="http://www.w3.org/2000/svg" xmlns:xlink="http://www.w3.org/1999/xlink" version="1.1" width="1080" height="1080" viewBox="0 0 1080 1080" xml:space="preserve">
<defs>
</defs>
<g transform="matrix(1 0 0 1 540 540)" id="c8f7aacb-0c8e-4f57-b455-450241d868a3"  >
<rect style="stroke: none; stroke-width: 1; stroke-dasharray: none; stroke-linecap: butt; stroke-dashoffset: 0; stroke-linejoin: miter; stroke-miterlimit: 4; fill: rgb(255,255,255); fill-rule: nonzero; opacity: 1; visibility: hidden;" vector-effect="non-scaling-stroke"  x="-540" y="-540" rx="0" ry="0" width="1080" height="1080" />
</g>
<g transform="matrix(1 0 0 1 540 540)" id="ba25bad7-6811-47b2-bb90-9a0af96aba0c"  >
</g>
<g transform="matrix(1 0 0 1 540 540)"  >
<g style="" vector-effect="non-scaling-stroke"   >
		<g transform="matrix(2 0 0 2 80 -80)"  >
<path style="stroke: none; stroke-width: 1; stroke-dasharray: none; stroke-linecap: butt; stroke-dashoffset: 0; stroke-linejoin: miter; stroke-miterlimit: 4; fill: rgb(248,248,247); fill-rule: nonzero; opacity: 1;" vector-effect="non-scaling-stroke"  transform=" translate(-140, -60)" d="M 140 40 C 128.954 40 120 48.9543 120 59.9999 C 120 71.0456 128.954 79.9999 140 79.9999 C 151.046 79.9999 160 71.0456 160 59.9999 C 160 48.9543 151.046 40 140 40 Z" stroke-linecap="round" />
</g>
		<g transform="matrix(2 0 0 2 0 0)"  >
<path style="stroke: none; stroke-width: 1; stroke-dasharray: none; stroke-linecap: butt; stroke-dashoffset: 0; stroke-linejoin: miter; stroke-miterlimit: 4; fill: rgb(248,248,247); fill-rule: evenodd; opacity: 1;" vector-effect="non-scaling-stroke"  transform=" translate(-100, -100)" d="M 0 20 C 0 8.9543 8.9543 0 20 0 L 180 0 C 191.046 0 200 8.9543 200 20 L 200 180 C 200 181.38 199.86 182.729 199.594 184.031 C 199.199 185.958 198.528 187.784 197.623 189.465 C 194.247 195.737 187.621 200 180 200 L 20 200 C 8.95431 200 0 191.046 0 180 L 0 20 Z M 64.6564 41.8952 L 60 37.2387 L 13.3333 83.9054 L 13.3333 20 C 13.3333 16.3181 16.3181 13.3333 20 13.3333 L 180 13.3333 C 183.682 13.3333 186.667 16.3181 186.667 20 L 186.667 133.333 L 156.095 133.333 L 64.7145 41.9526 C 64.6953 41.9333 64.6759 41.9142 64.6564 41.8952 Z" stroke-linecap="round" />
</g>
</g>
</g>
</svg>